adventprofmm_thn_krn.ufo
<glyph name="asciitilde" format="1">
  <advance width="358"/>
  <unicode hex="007E"/>
  <outline>
    <contour>
      <point x="322" y="307" type="curve"/>
      <point x="312" y="322" type="line"/>
      <point x="290" y="302"/>
      <point x="269" y="296"/>
      <point x="248" y="297" type="curve" smooth="yes"/>
      <point x="203" y="299"/>
      <point x="159" y="337"/>
      <point x="109" y="337" type="curve" smooth="yes"/>
      <point x="84" y="337"/>
      <point x="59" y="329"/>
      <point x="32" y="304" type="curve"/>
      <point x="43" y="287" type="line"/>
      <point x="65" y="309"/>
      <point x="87" y="317"/>
      <point x="107" y="317" type="curve" smooth="yes"/>
      <point x="150" y="317"/>
      <point x="200" y="278"/>
      <point x="252" y="278" type="curve" smooth="yes"/>
      <point x="274" y="278"/>
      <point x="298" y="286"/>
    </contour>
  </outline>
</glyph>
<glyph name="dieresis" format="1">
  <advance width="343"/>
  <unicode hex="00A8"/>
  <outline>
    <contour>
      <point x="30" y="724" type="curve" smooth="yes"/>
      <point x="21" y="724"/>
      <point x="13" y="716"/>
      <point x="13" y="706" type="curve" smooth="yes"/>
      <point x="13" y="697"/>
      <point x="21" y="690"/>
      <point x="30" y="690" type="curve" smooth="yes"/>
      <point x="40" y="690"/>
      <point x="47" y="697"/>
      <point x="47" y="706" type="curve" smooth="yes"/>
      <point x="47" y="716"/>
      <point x="40" y="724"/>
    </contour>
    <contour>
      <point x="188" y="724" type="curve" smooth="yes"/>
      <point x="179" y="724"/>
      <point x="172" y="716"/>
      <point x="172" y="706" type="curve" smooth="yes"/>
      <point x="172" y="697"/>
      <point x="179" y="690"/>
      <point x="188" y="690" type="curve" smooth="yes"/>
      <point x="197" y="690"/>
      <point x="205" y="697"/>
      <point x="205" y="706" type="curve" smooth="yes"/>
      <point x="205" y="716"/>
      <point x="197" y="724"/>
    </contour>
  </outline>
</glyph>
<glyph name="acute" format="1">
  <advance width="219"/>
  <unicode hex="00B4"/>
  <outline>
    <contour>
      <point x="135" y="686" type="line" smooth="yes"/>
      <point x="140" y="694"/>
      <point x="140" y="705"/>
      <point x="131" y="710" type="curve" smooth="yes"/>
      <point x="123" y="714"/>
      <point x="113" y="710"/>
      <point x="110" y="701" type="curve" smooth="yes"/>
      <point x="58" y="586" type="line"/>
      <point x="79" y="586" type="line"/>
    </contour>
  </outline>
</glyph>
<glyph name="IJ" format="1">
  <advance width="312"/>
  <unicode hex="0132"/>
  <outline>
    <contour>
      <point x="15" y="679" type="line"/>
      <point x="101" y="676" type="line"/>
      <point x="101" y="0" type="line"/>
      <point x="119" y="0" type="line"/>
      <point x="119" y="698" type="line"/>
      <point x="15" y="698" type="line"/>
    </contour>
    <contour>
      <point x="271" y="122" type="curve" smooth="yes"/>
      <point x="271" y="698" type="line"/>
      <point x="169" y="698" type="line"/>
      <point x="169" y="679" type="line"/>
      <point x="254" y="676" type="line"/>
      <point x="254" y="118" type="line" smooth="yes"/>
      <point x="254" y="35"/>
      <point x="222" y="-10"/>
      <point x="161" y="-19" type="curve"/>
      <point x="168" y="-37" type="line"/>
      <point x="205" y="-31"/>
      <point x="232" y="-15"/>
      <point x="248" y="12" type="curve"/>
      <point x="265" y="37"/>
      <point x="271" y="73"/>
    </contour>
  </outline>
</glyph>
<glyph name="dotaccent" format="1">
  <advance width="168"/>
  <unicode hex="02D9"/>
  <outline>
    <contour>
      <point x="29" y="732" type="curve" smooth="yes"/>
      <point x="20" y="732"/>
      <point x="12" y="724"/>
      <point x="12" y="714" type="curve" smooth="yes"/>
      <point x="12" y="705"/>
      <point x="20" y="697"/>
      <point x="29" y="697" type="curve" smooth="yes"/>
      <point x="38" y="697"/>
      <point x="45" y="705"/>
      <point x="45" y="714" type="curve" smooth="yes"/>
      <point x="45" y="724"/>
      <point x="38" y="732"/>
    </contour>
  </outline>
</glyph>
<glyph name="ring" format="1">
  <advance width="382"/>
  <unicode hex="02DA"/>
  <outline>
    <contour>
      <point x="108" y="773" type="curve" smooth="yes"/>
      <point x="45" y="773"/>
      <point x="-6" y="723"/>
      <point x="-6" y="660" type="curve" smooth="yes"/>
      <point x="-6" y="596"/>
      <point x="45" y="546"/>
      <point x="108" y="546" type="curve"/>
      <point x="170" y="546"/>
      <point x="221" y="596"/>
      <point x="221" y="660" type="curve" smooth="yes"/>
      <point x="221" y="723"/>
      <point x="170" y="773"/>
    </contour>
    <contour>
      <point x="108" y="754" type="curve" smooth="yes"/>
      <point x="159" y="754"/>
      <point x="202" y="712"/>
      <point x="202" y="660" type="curve"/>
      <point x="202" y="607"/>
      <point x="159" y="565"/>
      <point x="108" y="565" type="curve" smooth="yes"/>
      <point x="56" y="565"/>
      <point x="13" y="607"/>
      <point x="13" y="660" type="curve" smooth="yes"/>
      <point x="13" y="712"/>
      <point x="56" y="754"/>
    </contour>
  </outline>
</glyph>
<glyph name="tilde" format="1">
  <advance width="391"/>
  <unicode hex="02DC"/>
  <outline>
    <contour>
      <point x="238" y="676" type="line"/>
      <point x="215" y="658"/>
      <point x="199" y="653"/>
      <point x="188" y="653" type="curve" smooth="yes"/>
      <point x="154" y="652"/>
      <point x="116" y="685"/>
      <point x="73" y="684" type="curve" smooth="yes"/>
      <point x="52" y="684"/>
      <point x="31" y="678"/>
      <point x="11" y="656" type="curve"/>
      <point x="22" y="637" type="line"/>
      <point x="28" y="643"/>
      <point x="45" y="662"/>
      <point x="70" y="662" type="curve" smooth="yes"/>
      <point x="109" y="663"/>
      <point x="145" y="630"/>
      <point x="186" y="631" type="curve" smooth="yes"/>
      <point x="205" y="631"/>
      <point x="224" y="638"/>
      <point x="246" y="659" type="curve"/>
    </contour>
  </outline>
</glyph>
<glyph name="gravecomb" format="1">
  <advance width="137"/>
  <unicode hex="0300"/>
  <outline>
    <contour>
      <point x="86" y="613" type="line"/>
      <point x="107" y="613" type="line"/>
      <point x="55" y="727" type="line"/>
      <point x="52" y="736"/>
      <point x="42" y="741"/>
      <point x="34" y="737" type="curve"/>
      <point x="26" y="732"/>
      <point x="26" y="722"/>
      <point x="30" y="714" type="curve" smooth="yes"/>
    </contour>
  </outline>
</glyph>
<glyph name="circumflexcomb" format="1">
  <advance width="303"/>
  <unicode hex="0302"/>
  <outline>
    <contour>
      <point x="151" y="739" type="line"/>
      <point x="257" y="636" type="line"/>
      <point x="272" y="650" type="line"/>
      <point x="151" y="769" type="line"/>
      <point x="29" y="650" type="line"/>
      <point x="43" y="636" type="line"/>
    </contour>
  </outline>
</glyph>
<glyph name="tildecomb" format="1">
  <advance width="297"/>
  <unicode hex="0303"/>
  <outline>
    <contour>
      <point x="265" y="659" type="curve"/>
      <point x="257" y="676" type="line"/>
      <point x="234" y="658"/>
      <point x="218" y="653"/>
      <point x="207" y="653" type="curve" smooth="yes"/>
      <point x="173" y="652"/>
      <point x="135" y="685"/>
      <point x="92" y="684" type="curve" smooth="yes"/>
      <point x="71" y="684"/>
      <point x="50" y="678"/>
      <point x="30" y="656" type="curve"/>
      <point x="41" y="637" type="line"/>
      <point x="47" y="643"/>
      <point x="64" y="662"/>
      <point x="89" y="662" type="curve" smooth="yes"/>
      <point x="128" y="663"/>
      <point x="164" y="630"/>
      <point x="205" y="631" type="curve" smooth="yes"/>
      <point x="224" y="631"/>
      <point x="243" y="638"/>
    </contour>
  </outline>
</glyph>
<glyph name="macroncomb" format="1">
  <advance width="374"/>
  <unicode hex="0304"/>
  <outline>
    <contour>
      <point x="296" y="675" type="line"/>
      <point x="76" y="675" type="line"/>
      <point x="76" y="656" type="line"/>
      <point x="296" y="656" type="line"/>
    </contour>
  </outline>
</glyph>
<glyph name="brevecomb" format="1">
  <advance width="277"/>
  <unicode hex="0306"/>
  <outline>
    <contour>
      <point x="250" y="695" type="curve" smooth="yes"/>
      <point x="250" y="702" type="line"/>
      <point x="230" y="702" type="line"/>
      <point x="230" y="695" type="line" smooth="yes"/>
      <point x="230" y="645"/>
      <point x="189" y="604"/>
      <point x="138" y="604" type="curve" smooth="yes"/>
      <point x="88" y="604"/>
      <point x="47" y="645"/>
      <point x="47" y="695" type="curve" smooth="yes"/>
      <point x="47" y="702" type="line"/>
      <point x="25" y="702" type="line"/>
      <point x="25" y="695" type="line" smooth="yes"/>
      <point x="25" y="632"/>
      <point x="76" y="582"/>
      <point x="138" y="582" type="curve" smooth="yes"/>
      <point x="200" y="582"/>
      <point x="250" y="632"/>
    </contour>
  </outline>
</glyph>
<glyph name="dieresiscomb" format="1">
  <advance width="254"/>
  <unicode hex="0308"/>
  <outline>
    <contour>
      <point x="47" y="724" type="curve" smooth="yes"/>
      <point x="38" y="724"/>
      <point x="30" y="716"/>
      <point x="30" y="706" type="curve" smooth="yes"/>
      <point x="30" y="697"/>
      <point x="38" y="690"/>
      <point x="47" y="690" type="curve" smooth="yes"/>
      <point x="57" y="690"/>
      <point x="64" y="697"/>
      <point x="64" y="706" type="curve" smooth="yes"/>
      <point x="64" y="716"/>
      <point x="57" y="724"/>
    </contour>
    <contour>
      <point x="205" y="724" type="curve" smooth="yes"/>
      <point x="196" y="724"/>
      <point x="189" y="716"/>
      <point x="189" y="706" type="curve" smooth="yes"/>
      <point x="189" y="697"/>
      <point x="196" y="690"/>
      <point x="205" y="690" type="curve" smooth="yes"/>
      <point x="214" y="690"/>
      <point x="222" y="697"/>
      <point x="222" y="706" type="curve" smooth="yes"/>
      <point x="222" y="716"/>
      <point x="214" y="724"/>
    </contour>
  </outline>
</glyph>
<glyph name="dieresistonos" format="1">
  <advance width="343"/>
  <unicode hex="0385"/>
  <outline>
    <contour>
      <point x="127" y="690" type="curve" smooth="yes"/>
      <point x="127" y="700"/>
      <point x="119" y="706"/>
      <point x="110" y="706" type="curve" smooth="yes"/>
      <point x="100" y="706"/>
      <point x="92" y="700"/>
      <point x="92" y="690" type="curve" smooth="yes"/>
      <point x="92" y="681"/>
      <point x="100" y="673"/>
      <point x="110" y="673" type="curve" smooth="yes"/>
      <point x="119" y="673"/>
      <point x="127" y="681"/>
    </contour>
    <contour>
      <point x="285" y="690" type="curve" smooth="yes"/>
      <point x="285" y="700"/>
      <point x="277" y="706"/>
      <point x="267" y="706" type="curve" smooth="yes"/>
      <point x="258" y="706"/>
      <point x="251" y="700"/>
      <point x="251" y="690" type="curve" smooth="yes"/>
      <point x="251" y="681"/>
      <point x="258" y="673"/>
      <point x="267" y="673" type="curve" smooth="yes"/>
      <point x="277" y="673"/>
      <point x="285" y="681"/>
    </contour>
    <contour>
      <point x="250" y="824" type="line" smooth="yes"/>
      <point x="254" y="832"/>
      <point x="254" y="843"/>
      <point x="246" y="847" type="curve" smooth="yes"/>
      <point x="238" y="851"/>
      <point x="228" y="846"/>
      <point x="224" y="837" type="curve" smooth="yes"/>
      <point x="173" y="724" type="line"/>
      <point x="195" y="724" type="line"/>
    </contour>
  </outline>
</glyph>
<glyph name="caroncomb" format="1">
  <advance width="289"/>
  <outline>
    <contour>
      <point x="23" y="705" type="line"/>
      <point x="143" y="587" type="line"/>
      <point x="265" y="706" type="line"/>
      <point x="251" y="721" type="line"/>
      <point x="143" y="617" type="line"/>
      <point x="38" y="721" type="line"/>
    </contour>
  </outline>
</glyph>
<glyph name="cedillacomb" format="1">
  <advance width="188"/>
  <outline>
    <contour>
      <point x="70" y="-46" type="curve"/>
      <point x="97" y="0" type="line"/>
      <point x="76" y="0" type="line"/>
      <point x="47" y="-46" type="line"/>
      <point x="47" y="-67" type="line"/>
      <point x="68" y="-67"/>
      <point x="88" y="-67"/>
      <point x="104" y="-67" type="curve" smooth="yes"/>
      <point x="146" y="-67"/>
      <point x="176" y="-96"/>
      <point x="176" y="-136" type="curve" smooth="yes"/>
      <point x="176" y="-199"/>
      <point x="121" y="-206"/>
      <point x="104" y="-207" type="curve" smooth="yes"/>
      <point x="53" y="-210"/>
      <point x="10" y="-196"/>
      <point x="10" y="-196" type="curve"/>
      <point x="7" y="-204"/>
      <point x="6" y="-206"/>
      <point x="4" y="-213" type="curve"/>
      <point x="37" y="-221"/>
      <point x="60" y="-227"/>
      <point x="105" y="-226" type="curve" smooth="yes"/>
      <point x="148" y="-223"/>
      <point x="195" y="-198"/>
      <point x="195" y="-136" type="curve" smooth="yes"/>
      <point x="195" y="-86"/>
      <point x="156" y="-46"/>
      <point x="104" y="-46" type="curve" smooth="yes"/>
      <point x="99" y="-46"/>
      <point x="93" y="-46"/>
    </contour>
  </outline>
</glyph>
<glyph name="commaturnedabovecomb" format="1">
  <advance width="83"/>
  <outline>
    <contour>
      <point x="64" y="679" type="curve"/>
      <point x="55" y="685" type="line"/>
      <point x="55" y="685"/>
      <point x="16" y="661"/>
      <point x="16" y="608" type="curve" smooth="yes"/>
      <point x="16" y="598"/>
      <point x="23" y="592"/>
      <point x="33" y="592" type="curve" smooth="yes"/>
      <point x="42" y="592"/>
      <point x="49" y="598"/>
      <point x="49" y="608" type="curve" smooth="yes"/>
      <point x="49" y="616"/>
      <point x="45" y="621"/>
      <point x="38" y="624" type="curve"/>
      <point x="40" y="639"/>
      <point x="45" y="660"/>
    </contour>
  </outline>
</glyph>
<glyph name="hungarumlautcomb" format="1">
  <advance width="241"/>
  <outline>
    <contour>
      <point x="24" y="582" type="line"/>
      <point x="45" y="582" type="line"/>
      <point x="100" y="682" type="line"/>
      <point x="105" y="690"/>
      <point x="104" y="701"/>
      <point x="96" y="705" type="curve"/>
      <point x="88" y="710"/>
      <point x="78" y="705"/>
      <point x="74" y="696" type="curve" smooth="yes"/>
    </contour>
    <contour>
      <point x="135" y="582" type="line"/>
      <point x="156" y="582" type="line"/>
      <point x="212" y="682" type="line" smooth="yes"/>
      <point x="216" y="690"/>
      <point x="216" y="701"/>
      <point x="207" y="705" type="curve"/>
      <point x="200" y="710"/>
      <point x="190" y="705"/>
      <point x="186" y="696" type="curve" smooth="yes"/>
    </contour>
  </outline>
</glyph>
<glyph name="ogonekcomb" format="1">
  <advance width="194"/>
  <outline>
    <contour>
      <point x="42" y="-123" type="curve" smooth="yes"/>
      <point x="114" y="2" type="line"/>
      <point x="114" y="11" type="line"/>
      <point x="98" y="10" type="line"/>
      <point x="98" y="3" type="line"/>
      <point x="26" y="-114" type="line" smooth="yes"/>
      <point x="-10" y="-177"/>
      <point x="36" y="-239"/>
      <point x="109" y="-227" type="curve"/>
      <point x="122" y="-224"/>
      <point x="199" y="-198"/>
      <point x="199" y="-198" type="curve"/>
      <point x="193" y="-178" type="line"/>
      <point x="193" y="-178"/>
      <point x="155" y="-191"/>
      <point x="121" y="-204" type="curve"/>
      <point x="56" y="-224"/>
      <point x="11" y="-177"/>
    </contour>
  </outline>
</glyph>
<glyph name="ringcomb" format="1">
  <advance width="279"/>
  <outline>
    <contour>
      <point x="139" y="773" type="curve" smooth="yes"/>
      <point x="76" y="773"/>
      <point x="25" y="723"/>
      <point x="25" y="660" type="curve" smooth="yes"/>
      <point x="25" y="596"/>
      <point x="76" y="546"/>
      <point x="139" y="546" type="curve" smooth="yes"/>
      <point x="201" y="546"/>
      <point x="252" y="596"/>
      <point x="252" y="660" type="curve" smooth="yes"/>
      <point x="252" y="723"/>
      <point x="201" y="773"/>
    </contour>
    <contour>
      <point x="139" y="754" type="curve" smooth="yes"/>
      <point x="190" y="754"/>
      <point x="233" y="712"/>
      <point x="233" y="660" type="curve" smooth="yes"/>
      <point x="233" y="607"/>
      <point x="190" y="565"/>
      <point x="139" y="565" type="curve" smooth="yes"/>
      <point x="87" y="565"/>
      <point x="44" y="607"/>
      <point x="44" y="660" type="curve" smooth="yes"/>
      <point x="44" y="712"/>
      <point x="87" y="754"/>
    </contour>
  </outline>
</glyph>
